<?xml version="1.0" encoding="UTF-8"?><svg id="Layer_1" xmlns="http://www.w3.org/2000/svg" width="345.29" height="131.91" viewBox="0 0 345.29 131.91"><defs><style>.cls-1{fill:#caedea;stroke:#caedea;stroke-miterlimit:10;}</style></defs><path class="cls-1" d="M168.23,2.75c5.24,0,10.48-.12,15.71,.03,6.31,.19,12.63,.39,18.9,.99,6.91,.66,13.79,1.7,20.66,2.74,5.09,.77,10.18,1.64,15.2,2.75,5.53,1.21,11,2.7,16.48,4.15,4.05,1.07,8.11,2.13,12.08,3.46,6.54,2.2,13.08,4.43,19.49,6.98,7.22,2.88,14.3,6.12,21.42,9.24,2.54,1.12,2.49,1.31,1.13,3.75-1.59,2.86-3.01,5.81-4.53,8.7-3.09,5.89-6.21,11.77-9.31,17.66-1.45,2.75-2.88,5.52-4.29,8.28-.91,1.77-1.12,1.75-2.91,.86-3.03-1.5-6.13-2.87-9.23-4.24-3.03-1.33-6.08-2.6-9.14-3.86-1.25-.51-2.55-.92-3.84-1.35-6.16-2.05-12.27-4.29-18.51-6.09-6.39-1.85-12.87-3.44-19.38-4.84-6-1.29-12.08-2.26-18.15-3.23-10.63-1.71-21.36-2.4-32.11-2.45-7.83-.04-15.66,.18-23.48,.57-9.18,.45-18.29,1.73-27.34,3.38-5.69,1.04-11.38,2.15-17,3.53-5.77,1.42-11.49,3.06-17.15,4.85-5.24,1.66-10.45,3.47-15.56,5.51-6.18,2.48-12.24,5.25-18.34,7.94-2.48,1.1-2.44,1.15-3.69-1.25-3.03-5.84-6.06-11.68-9.11-17.51-3.03-5.79-6.09-11.57-9.14-17.36-.72-1.37-.71-1.67,.65-2.32,3.74-1.8,7.46-3.65,11.3-5.23,6.15-2.54,12.35-5.01,18.6-7.29,5.7-2.07,11.46-3.98,17.27-5.7,5.96-1.76,11.99-3.31,18.04-4.76,5.78-1.38,11.6-2.65,17.45-3.72,4.43-.82,8.94-1.26,13.41-1.86,3.28-.43,6.57-.89,9.86-1.23,2.74-.28,5.49-.46,8.25-.59,5.43-.26,10.86-.47,16.29-.7,0,.06,0,.12,0,.17Zm-66.85,15.98c-.02-.1-.05-.2-.07-.29-.71,.08-1.43,.09-2.13,.24-1.29,.27-2.08,1.44-1.96,2.76,.09,.97,1.1,1.87,2.32,1.82,1.31-.05,1.85,.53,2.12,1.73,.96,4.19,1.92,8.38,3.03,12.53,.47,1.77,.24,3.03-1.43,3.91-.27,.14-.63,.39-.68,.65-.18,.89-.47,1.85-.3,2.71,.17,.91,1.11,1.2,2.02,1.09,.98-.12,1.96-.3,2.93-.48,.86-.16,1.72-.3,2.56-.53,.84-.23,1.73-.43,2.45-.88,.86-.54,1.46-1.34,1.19-2.52-.34-1.52-.95-1.94-2.92-1.9-1.28,.03-1.68-.39-1.77-1.66-.06-.91-.29-1.81-.33-2.72-.04-.81-.03-1.65,.17-2.43,.24-.95,.75-.98,1.44-.27,1.7,1.76,3.39,3.53,5.15,5.23,.64,.62,.85,1.1,.38,1.96-.9,1.64,.04,3.34,1.88,3.2,2.01-.15,4.07-.49,5.96-1.15,.81-.28,1.35-1.56,1.8-2.48,.12-.24-.44-1-.85-1.26-.43-.27-1.05-.27-1.59-.34-1.78-.22-3.32-.82-4.22-2.51-.21-.38-.43-.78-.73-1.09-1.9-2.03-3.85-4.01-5.71-6.07-.24-.27-.21-.97-.05-1.38,.34-.93,.82-1.81,1.28-2.69,1.19-2.27,2.36-4.53,5.22-5.15,1.11-.24,1.48-1.05,1.26-2.19-.21-1.11-1.16-1.99-2.16-1.81-2,.36-4.01,.71-5.95,1.32-.83,.26-1.57,1.05-2.14,1.77-.24,.29-.12,1.3,.18,1.51,.94,.68,.63,1.35,.25,2.08-.61,1.16-1.21,2.33-1.9,3.45-.33,.54-.86,.96-1.29,1.43-.32-.51-.66-1.02-.96-1.54-.13-.24-.2-.52-.27-.79-.26-.99-.12-1.73,.92-2.29,1.34-.72,1.92-1.95,1.55-2.8-.42-.96-1.67-1.42-3.14-1.14-.27,.05-.53,.18-.8,.25-.9,.25-1.8,.5-2.7,.75Zm139.18,6.17c-.44,0-.6,0-.76,0-1.93,.08-2.47,1.09-1.55,2.72,.15,.26-.1,1.01-.38,1.19-1.24,.78-2.55,1.44-3.85,2.1-.25,.13-.59,.1-.89,.15-.04-.33-.18-.69-.11-.99,.12-.54,.44-1.03,.54-1.57,.54-2.85,1.04-5.7,1.54-8.56,.11-.62,.24-1.27,.18-1.89-.11-1.22-.85-2.09-1.95-2.51-1.06-.4-2.21-.32-2.98,.59-.36,.43-.64,1.38-.41,1.76,1.02,1.67,.48,3.18-.04,4.82-.44,1.41-.58,2.92-.83,4.39-.16,.9-.25,1.81-.44,2.69-.36,1.66-.91,3.29-1.12,4.97-.26,2.08-.5,2.56-2.45,3.26-.19,.07-.37,.16-.54,.25-1.11,.55-1.81,1.66-1.6,2.67,.24,1.18,1.1,1.61,2.23,1.82,1.57,.29,3.09,.77,4.66,1.09,.77,.16,1.65,.34,2.35,.12,.62-.2,1.26-.87,1.51-1.48,.18-.43-.15-1.22-.48-1.68-.41-.57-1.08-.93-1.6-1.43-.66-.64-.61-1.28,.16-1.8,.76-.51,1.54-1,2.36-1.42,1.15-.6,2.38,.14,2.51,1.46,.06,.55,.03,1.14,.21,1.65,.38,1.07,.09,1.76-.78,2.49-.45,.38-.78,1.29-.66,1.85,.13,.56,.84,1.05,1.4,1.41,.41,.26,.99,.27,1.5,.39,1.67,.4,3.32,.84,5,1.19,1.04,.21,1.8-.34,2.24-1.23,.4-.81,.17-1.59-.51-2.16-.51-.43-1.07-.85-1.69-1.07-.93-.34-1.57-.82-1.83-1.84-.33-1.31-.75-2.6-1.2-3.88-1.11-3.15-1.12-3.15,1.54-5.24,.06-.05,.12-.1,.19-.15,.89-.73,1.84-.99,3.01-.64,1.43,.43,2.98-.35,3.33-1.54,.32-1.07-.53-2.48-1.99-2.85-2-.5-4.05-.78-5.81-1.1Zm-35.87,10.92s.06,0,.08,0c0,.44,0,.88,0,1.32,.03,1.88,1.17,2.76,3.07,2.51,.64-.08,1.34,.05,1.96,.24,1.85,.56,3.58,1.69,5.64,1.05,1.52-.47,3.01-1.06,4.55-1.46,1.83-.48,2.89-2.5,2.65-4.18-.15-1.05-.5-2.08-.84-3.09-1.03-3.08-3.13-4.58-6.4-4.84-.87-.07-1.74-.47-2.56-.83-.29-.13-.66-.67-.59-.88,.11-.32,.54-.65,.9-.75,1.95-.55,3.63-.06,4.95,1.5,.86,1.02,1.99,1.21,3.15,.9,1.18-.32,1.83-1.21,1.93-2.47,.04-.56,.19-1.11,.2-1.66,.03-1.59-1.16-3.21-2.42-2.98-2.17,.39-4.1-.44-6.1-.84-2.86-.56-6.88,1.39-7.97,4.1-.26,.64-.46,1.5-.24,2.09,.97,2.54,2.32,4.83,5.13,5.78,1.47,.5,2.94,1.01,4.4,1.54,1.11,.4,.98,1.49,1.09,2.33,.05,.34-.58,1.08-.96,1.12-1.65,.2-3.42,.44-4.85-.63-1.16-.87-2.05-2.08-3.18-3-.53-.43-1.44-.88-1.98-.7-.61,.2-1.14,1.03-1.42,1.71-.26,.63-.15,1.41-.2,2.13Zm-67.99-.58c-2.02,.16-2.46-.14-2.66-2.11-.15-1.5,0-3.03-.12-4.53-.15-1.97,.49-3.51,2.16-4.6,.99-.65,1.34-.53,1.47,.63,.17,1.44,1,2.21,2.32,2.55,1.77,.46,3.39-.3,4.3-2,.81-1.51,.46-3.96-.71-5-2.62-2.33-6.01-2.71-9.05-.94-.98,.57-1.89,.75-2.93,.19-1.79-.95-3.61-.39-5.36,.11-1.25,.35-1.85,1.41-1.71,2.44,.13,.98,1.08,1.85,2.23,2.05,.08,.01,.16,.03,.24,.03,.99-.08,1.46,.44,1.62,1.36,.09,.51,.3,1,.36,1.51,.21,1.86,.28,3.75,.6,5.59,.53,3.1,.57,3.04-2.21,4.44-.57,.29-1.11,1.06-1.24,1.7-.17,.84,.42,1.57,1.3,1.74,1.16,.24,2.35,.49,3.52,.44,1.59-.07,3.17-.37,4.75-.64,.86-.15,1.81-.26,2.52-.7,.67-.42,1.42-1.21,1.5-1.91,.07-.63-.62-1.47-1.19-1.99-.37-.34-1.12-.26-1.7-.37Zm33.84-7.76s-.02,0-.02,0c0,1.4-.03,2.8,.02,4.19,.02,.58,.06,1.28,.38,1.71,.93,1.23,1.89,2.5,3.06,3.48,2.11,1.78,4.87,1.76,7.06,.1,.89-.67,1.69-1.46,2.47-2.26,.95-.98,1.46-2.17,1.52-3.55,.05-1.03-.1-1.94-1.24-2.31-1.17-.37-2.15,0-2.77,1.05-.33,.55-.49,1.24-.91,1.67-.65,.65-1.4,1.43-2.22,1.61-1.05,.23-1.73-.78-2.04-1.7-.3-.88-.35-1.85-.45-2.79-.1-.98-.15-1.97-.19-2.96-.05-1.1-.18-2.21-.08-3.3,.09-.99,.73-1.47,1.84-1.41,1.43,.08,2.91,.16,4.29-.12,.81-.17,1.69-.9,2.16-1.63,.59-.92-.34-1.65-.97-2.19-.44-.38-1.12-.6-1.72-.66-1.15-.1-2.32,0-3.47-.05-1.76-.06-2.15-.58-1.84-2.34,.3-1.73-.47-3.28-1.91-3.84-1.41-.54-2.7,.28-2.76,1.79-.03,.64,0,1.28,0,1.92-.04,1.4-.53,1.99-1.9,2.37-.69,.19-1.4,.36-2.04,.66-.88,.4-1.37,1.11-1.14,2.13,.22,.99,.86,1.6,1.87,1.77,.31,.05,.64,.02,.96,.03,1.53,.07,2.06,.61,2.07,2.16,.01,1.48,0,2.96,0,4.43Zm-15.35-9.67c.55-.36,.92-.58,1.26-.83,.87-.64,1.43-1.41,1.54-2.56,.19-1.88-1.03-2.51-2.41-3.24-2.05-1.09-3.57,.08-4.63,1.47-.85,1.11-.38,2.79,.96,4.02,.32,.29,.58,.65,1.09,1.24-.78,0-1.19-.02-1.6,0-1.15,.06-2.34,0-3.44,.26-.58,.14-1.32,.79-1.45,1.33-.13,.54,.28,1.36,.7,1.84,.79,.91,1.82,1.36,3.11,1.03,.52-.14,1.11-.05,1.67,0,1.17,.1,1.72,.68,1.77,1.94,.1,2.85-.21,5.72,.45,8.53,.03,.11,.01,.24,.02,.36,.04,.89-.39,1.33-1.28,1.37-1,.04-1.99,.09-2.99,.18-1.19,.1-2.17,1.01-2.19,2.01-.02,.97,.94,2,2.14,2.02,1.35,.02,2.7-.19,4.05-.28,.58-.04,1.17-.03,1.75-.07,2.5-.17,5.01-.29,7.5-.57,.4-.05,.93-.77,1.03-1.25,.08-.4-.28-1.17-.64-1.33-1.02-.46-2.14-.75-3.24-1.01-.99-.23-2.31-.12-2.4-1.48-.19-2.7-.08-5.43-.27-8.13-.17-2.4,.41-5.11-2.46-6.84Zm39.07,.03c-.07,.11-.14,.22-.22,.33-.34-.05-.67-.12-1.01-.15-1.23-.12-2.46-.32-3.68-.3-1.48,.03-2.39,1.36-1.71,2.41,.66,1.02,1.5,1.88,2.84,1.97,.64,.04,1.28,.08,1.91,.19,1.63,.29,2.03,.83,1.89,2.45-.03,.36-.09,.71-.13,1.07-.17,1.42-.4,2.83-.5,4.25-.07,.99,.05,1.99,.05,2.98,0,1.17-.62,1.62-1.76,1.56-1.12-.07-2.27-.24-3.34-.03-.66,.12-1.5,.75-1.72,1.35-.18,.5,.23,1.62,.71,1.89,.92,.51,2.05,.73,3.13,.86,1.26,.15,2.54,.01,3.81,.11,2.3,.17,4.6,.49,6.91,.59,.51,.02,1.28-.54,1.5-1.02,.19-.42-.08-1.25-.43-1.67-.78-.93-1.82-1.45-3.1-1.59-1.75-.18-2.2-.81-2.07-2.55,.16-2.19,.28-4.39,.61-6.56,.41-2.68,.91-5.33-1.02-7.63,.04-.09,.05-.15,.07-.16,.28-.15,.55-.3,.83-.44,1.42-.73,2.21-2.15,2.01-3.63-.17-1.32-1.36-1.69-2.24-2.33-1.39-1.02-3.07-.71-4.38,.73-1.05,1.15-1.03,2.58,.02,3.92,.36,.45,.68,.94,1.01,1.41Zm-110.5,17.84c-.49,0-.71-.04-.92,0-1.74,.41-3.49,.81-5.22,1.29-.9,.25-1.56,.05-2.06-.72-.85-1.3-1.68-2.62-2.57-3.9-.25-.35-.67-.58-1.01-.87-.19,.4-.51,.8-.55,1.22-.17,1.55-.3,3.1-.34,4.65-.02,1.07-.47,1.59-1.5,1.79-1.49,.29-2.97,.64-4.42,1.06-.39,.11-.68,.56-1.02,.86,.3,.27,.56,.65,.91,.79,1.41,.57,2.83,1.1,4.27,1.57,1.14,.37,1.56,1.05,1.42,2.26-.16,1.42-.17,2.87-.18,4.3,0,.39,.24,.79,.37,1.19,.36-.2,.8-.33,1.06-.62,.96-1.07,1.89-2.17,2.78-3.29,.62-.78,1.26-1.09,2.27-.68,1.4,.57,2.85,1.03,4.3,1.48,.38,.12,.83,.02,1.25,.01-.1-.39-.11-.83-.31-1.16-.81-1.33-1.65-2.64-2.53-3.92-.5-.73-.53-1.35,.05-2.04,1.04-1.26,2.05-2.55,3.05-3.84,.3-.39,.53-.82,.92-1.43Zm183.94,1.48l-.27,.35c.27,.51,.49,1.06,.82,1.52,.82,1.13,1.67,2.23,2.57,3.31,.65,.78,.78,1.47,.14,2.35-.82,1.13-1.54,2.33-2.23,3.54-.24,.41-.28,.94-.42,1.41,.53-.03,1.09,.05,1.57-.1,1.4-.45,2.75-1.07,4.17-1.45,.49-.13,1.29,.08,1.64,.43,1.06,1.07,1.95,2.32,2.97,3.44,.36,.4,.9,.64,1.35,.95,.11-.55,.33-1.1,.31-1.65-.04-1.51-.18-3.03-.29-4.54-.06-.8,.3-1.24,1.05-1.52,1.49-.56,2.98-1.15,4.43-1.79,.38-.17,.65-.59,.98-.9-.38-.25-.72-.61-1.13-.73-1.34-.4-2.69-.73-4.05-1.06-1.05-.26-1.66-.79-1.69-1.97-.04-1.47-.18-2.95-.34-4.41-.03-.3-.32-.57-.49-.86-.26,.16-.58,.27-.76,.49-.62,.78-1.23,1.57-1.77,2.41-1.81,2.81-1.78,2.78-5.01,1.65-1.14-.4-2.36-.58-3.54-.85Z"/><path class="cls-1" d="M70.69,76.66c-.41,.29-.79,.65-1.24,.86-6.11,2.93-12.22,5.87-18.36,8.76-4.76,2.25-9.56,4.41-14.32,6.65-4.58,2.16-9.14,4.37-13.7,6.58-2.47,1.19-2.5,1.19-2.44-1.44,.17-6.59,.32-13.17,.55-19.76,.05-1.4-.44-2.31-1.58-3.09-4.94-3.38-9.85-6.81-14.76-10.23-1.26-.88-2.5-1.8-3.91-2.81,.48-.27,.76-.46,1.07-.6,4.88-2.29,9.76-4.57,14.63-6.87,5.7-2.69,11.4-5.39,17.09-8.1,.83-.39,1.65-.81,2.44-1.26,1-.58,1.61-.26,2.11,.71,1.52,2.99,3.07,5.95,4.62,8.93,3.49,6.72,7,13.43,10.48,20.16,.68,1.31,1.52,2.01,3.17,1.88,4.26-.35,8.53-.5,12.8-.73,.41-.02,.83,0,1.25,0,.04,.12,.07,.25,.11,.37Zm-39.23,6.3c.05,.13,.11,.25,.16,.38,.39-.05,.81-.03,1.17-.17,2.6-.99,5.19-2.02,7.79-3.01,2.16-.82,4.33-1.61,6.5-2.43,1.09-.41,1.32-.95,.85-1.93-.56-1.18-.92-1.3-2.01-.73-4.16,2.19-8.33,4.36-12.48,6.57-.69,.37-1.32,.87-1.97,1.32Zm-3.55-5.2c.07,.14,.14,.27,.21,.41,5.47-2.07,10.93-4.12,16.39-6.2,.87-.33,1.09-.94,.62-1.82-.43-.8-.75-1.45-1.88-.82-3.76,2.09-7.57,4.07-11.35,6.12-1.35,.73-2.66,1.54-3.98,2.31Zm-4.44-11.76c.02,.06,.05,.12,.07,.17,.26-.03,.54-.02,.79-.11,1.84-.63,3.68-1.26,5.5-1.94,3.09-1.15,6.17-2.36,9.26-3.5,.97-.36,1.06-.96,.73-1.79-.45-1.13-1.04-1.36-2.14-.78-3.73,1.98-7.46,3.94-11.16,5.96-1.06,.58-2.03,1.32-3.05,1.98Zm-2.35-5.59c.05,.13,.09,.26,.14,.39,.35-.05,.73-.04,1.06-.16,4.82-1.79,9.64-3.6,14.45-5.41,.75-.28,.91-.82,.64-1.54-.48-1.27-1.08-1.55-2.28-.91-2.72,1.44-5.41,2.92-8.11,4.39-1.97,1.07-3.93,2.16-5.9,3.25Zm4.9,11.27c.02,.11,.04,.21,.07,.32,.43-.09,.88-.13,1.29-.28,2.69-.99,5.37-1.99,8.06-3.01,2.05-.77,4.09-1.57,6.14-2.34,.96-.36,1.19-.94,.75-1.87-.5-1.06-.95-1.22-2.09-.61-3.2,1.7-6.41,3.39-9.59,5.12-1.56,.85-3.08,1.78-4.62,2.67Z"/><path class="cls-1" d="M344.72,63.14c-.79,.59-1.55,1.22-2.36,1.78-5.37,3.74-10.75,7.47-16.15,11.17-.92,.63-1.33,1.36-1.28,2.49,.28,7.02,.51,14.04,.76,21.07,.06,1.6-.13,1.73-1.58,1.04-5.09-2.4-10.18-4.79-15.25-7.22-4.53-2.17-9.03-4.42-13.57-6.56-6.24-2.94-12.51-5.82-18.76-8.74-.49-.23-.95-.52-1.43-.78,.01-.11,.03-.22,.04-.32,.43-.05,.86-.16,1.28-.13,4.39,.25,8.77,.52,13.16,.8,1.96,.12,2.02,.06,2.93-1.68,2.32-4.45,4.71-8.87,7.03-13.32,2.84-5.44,5.65-10.89,8.44-16.35,.46-.89,1.05-.84,1.78-.49,4.59,2.23,9.18,4.48,13.78,6.68,5.65,2.71,11.31,5.38,16.96,8.07,1.42,.68,2.85,1.35,4.27,2.03-.01,.15-.03,.3-.04,.46Zm-24.06,7.98c.09-.16,.18-.31,.27-.47-.52-.44-.98-.99-1.57-1.31-1.73-.94-3.52-1.78-5.28-2.69-2.51-1.3-5-2.64-7.51-3.94-1.07-.55-1.47-.29-2.15,1.04-.56,1.09,.24,1.2,.9,1.47,3.97,1.58,7.94,3.18,11.92,4.74,1.12,.44,2.28,.77,3.43,1.15Zm5.51-11.13c.05-.11,.1-.22,.15-.33-.48-.45-.89-1.04-1.45-1.33-4.42-2.32-8.87-4.58-13.3-6.88-.69-.36-1.18-.28-1.63,.38-.79,1.18-.72,1.56,.52,2.19,.42,.22,.86,.42,1.3,.59,2.01,.78,4.02,1.53,6.02,2.32,1.98,.78,3.94,1.62,5.93,2.38,.79,.3,1.63,.45,2.45,.67Zm-2.6,5.44c.06-.08,.12-.15,.18-.23-.08-.13-.13-.31-.24-.39-1.06-.67-2.1-1.38-3.2-1.97-3.75-2.03-7.53-4-11.28-6.03-1.07-.58-1.55-.03-1.92,.84-.36,.85-.3,1.48,.75,1.86,3.1,1.15,6.15,2.4,9.24,3.57,2.14,.81,4.31,1.57,6.47,2.35Zm-6.3,10.9c.07-.18,.15-.36,.22-.54-1.07-.65-2.11-1.35-3.2-1.95-2.48-1.35-4.99-2.65-7.49-3.97-1.05-.56-2.08-1.19-3.16-1.69-.99-.46-1.53-.1-2.05,1.15-.39,.94,.13,1.27,.91,1.56,2.02,.74,4.02,1.52,6.02,2.29,1.85,.72,3.69,1.47,5.55,2.16,1.05,.39,2.13,.66,3.2,.99Zm-2.74,5.58c.05-.15,.1-.3,.15-.46-.18-.14-.34-.31-.54-.42-2.44-1.36-4.88-2.71-7.32-4.05-1.89-1.03-3.78-2.06-5.68-3.07-1.03-.54-1.58-.29-2.09,.75-.47,.97-.17,1.44,.81,1.77,1.17,.39,2.29,.92,3.44,1.37,2.6,1.02,5.19,2.05,7.8,3.03,1.12,.42,2.29,.71,3.44,1.07Z"/><path class="cls-1" d="M190.87,99.79c.11,2.35,.31,4.71,.32,7.06,.01,3.1-.03,6.21-.22,9.3-.14,2.21,.43,3.75,2.6,4.69,1.24,.54,2.53,1.31,2.6,2.99,.1,2.4-1.05,3.68-3.5,3.81-1.16,.06-2.32-.04-3.48,.03-1.66,.09-3.33,.2-4.98,.41-2.42,.3-4.49-.39-6.3-1.99-.81-.72-.88-1.49-.43-2.47,.72-1.54,1.54-2.68,3.48-3.02,2.34-.41,3.46-2.11,3.38-4.47-.08-2.22-.36-4.43-.43-6.65-.04-1.3,.23-2.6,.26-3.91,.03-1.38-.03-2.77-.08-4.15-.05-1.33-.44-2.73-.17-3.98,.38-1.76,.67-3.41,.1-5.17-.16-.49-.09-1.11,.04-1.63,.52-1.97,.46-3.87-.49-5.7-.51-.98-1.25-1.62-2.42-1.69-1.89-.11-3.05-1.26-3.85-2.83-.46-.91,.05-1.63,.51-2.42,.86-1.47,2.05-2.14,3.74-2.08,2,.07,4,0,5.99,.07,4.1,.13,7.02,1.89,8.51,5.9,1.02,2.76,2.45,5.36,3.48,8.12,.62,1.66,.83,3.47,1.27,5.21,.12,.49,.33,.98,.57,1.43,1.25,2.4,2.46,4.82,3.82,7.16,.45,.77,1.23,1.41,1.98,1.92,.68,.46,1.14,.01,.92-.72-.58-1.95-.33-3.86,.1-5.78,.09-.41,.08-.89-.02-1.3-.89-3.51-.85-7.02-.02-10.54,.54-2.32-.92-3.98-3.48-3.97-2.61,0-4.29-2.07-3.78-4.65,.36-1.83,2.13-3.4,3.98-3.34,1.54,.06,3.06,.48,4.59,.47,1.81-.01,3.62-.42,5.44-.47,1.73-.05,3.07,.91,3.9,2.36,.72,1.27,.17,3.28-1.06,4.45-.57,.54-1.22,1.01-1.92,1.36-.92,.47-1.05,1.2-1.05,2.09,.01,5.71,.34,11.45-.08,17.13-.53,7.13-.34,14.26-.57,21.39-.1,3.06-3.08,4.72-5.53,2.95-2.71-1.95-4.46-4.68-4.95-8.1-.41-2.89-1.67-5.45-3.04-7.99-.77-1.42-1.26-2.99-1.9-4.48-.45-1.06-1.02-2.08-1.37-3.17-.53-1.67-1.13-3.22-2.23-4.68-1.02-1.35-1.35-3.2-2-4.83-.31-.78-.61-1.56-.97-2.31-.12-.24-.43-.39-.66-.58-.17,.25-.41,.47-.48,.75-.09,.38-.06,.79-.07,1.19,0,2.28,0,4.55,0,6.83h-.08Z"/><path class="cls-1" d="M241.85,73.93c3.56,0,7.12,.13,10.67-.04,2.71-.13,5.11,.53,7.39,1.88,.27,.16,.57,.29,.85,.44,3.1,1.61,3.29,1.59,2.43,5.14-.71,2.92-.98,5.57-.27,8.52,.61,2.55-.53,4.86-2.53,6.63-1.36,1.2-4.2,.36-5.05-1.53-.85-1.87-.97-3.79-.58-5.84,.26-1.37,.28-2.89,0-4.25-.47-2.22-2.92-3.09-4.91-1.94-2.89,1.65-3.22,2.71-2.71,6,.22,1.39-.36,2.89-.45,4.34-.08,1.4,0,2.81,.03,4.22,.01,.43,.16,.87,.16,1.3,.02,3.51,.06,7.03-.01,10.54-.02,1.26-.45,2.5-.48,3.76-.07,3.02,.97,4.42,3.85,5.37,1.85,.62,3.74,1.13,5.6,1.73,1.62,.52,1.99,1.93,2.3,3.36,.33,1.55-.34,2.64-1.61,3.43-1.21,.75-2.49,1.16-3.96,1.15-6.19-.04-12.39-.05-18.58,0-2.59,.02-4.59-1.25-6.45-2.78-1.05-.87-.85-3.31,.33-4.36,1.57-1.4,3.46-2,5.53-1.59,2.71,.54,4.03-.4,4.38-3.15,.28-2.23,.75-4.43,1.07-6.65,.11-.78,.1-1.59,.04-2.38-.11-1.38-.29-2.76-.44-4.13-.01-.12,.03-.27-.02-.36-1.74-2.89,.36-5.52,.53-8.28,.07-1.21-.07-2.43-.13-3.64-.02-.35-.14-.71-.12-1.05,.11-1.62,.3-3.24,.37-4.86,.06-1.43-.84-2.4-2.29-2.47-1.2-.06-2.4-.03-3.6,0-1.21,.02-1.54,.93-1.64,1.86-.24,2.25-.25,4.53-.61,6.75-.28,1.71-.79,3.42-1.49,5-.64,1.43-2.09,1.75-3.59,1.54-1.35-.19-2.12-1.08-2.47-2.31-.21-.76-.3-1.57-.3-2.36,.01-3.03,.12-6.07,.1-9.1,0-.94-.28-1.87-.42-2.81-.04-.27-.16-.58-.08-.81,.83-2.59,2.23-4.75,4.7-6.05,.4-.21,.93-.21,1.4-.21,4.36-.01,8.71,0,13.07,0Z"/><path class="cls-1" d="M94.15,128.05c-1.96,0-3.91,0-5.87,0-1.46,0-2.41-.82-2.92-2.09-.54-1.36-.62-2.79,.51-3.92,.75-.75,1.62-1.43,2.54-1.96,1.22-.71,1.84-1.55,1.82-3.05-.05-3.11,.19-6.22,.13-9.33-.06-2.62-.49-5.22-.57-7.84-.05-1.81,.29-3.64,.33-5.46,.02-.93-.24-1.86-.35-2.8-.08-.66-.17-1.33-.17-1.99,0-.88,.25-1.78,.11-2.62-.13-.76-.47-1.64-1.01-2.16-.97-.93-2.08-1.78-3.27-2.4-1.68-.86-2.01-2.4-2.02-3.9-.02-1.55,1.28-2.4,2.6-2.99,1.56-.7,3.08-1.05,4.83-.24,.75,.35,1.89-.09,2.84-.25,.65-.11,1.28-.5,1.92-.51,2.88-.06,5.81-.38,8.62,.05,4.04,.61,8.26,.58,12.03,2.52,2.64,1.36,4.65,3.36,5.64,6.2,.6,1.71,1.1,3.47,1.49,5.24,.36,1.66,.58,3.35,.72,5.04,.05,.67-.18,1.42-.44,2.06-1.86,4.6-5.06,8.03-9.41,10.34-1.12,.6-2.48,.97-3.75,1.04-2.83,.15-5.68,.15-8.51,.01-2.25-.11-3.47,1.71-3.53,3.28-.07,2.07-.09,4.16,0,6.23,.07,1.41,.79,2.55,2.18,3.02,1.76,.59,2.77,1.95,3.78,3.34,.58,.8,.59,1.62-.02,2.43-1.16,1.56-2.52,2.79-4.62,2.79-1.88,0-3.75,0-5.63,0,0-.03,0-.07,0-.1Zm13.91-29.15l.04,.27c1.37-.23,2.73-.53,4.11-.67,1.38-.13,2.19-.9,2.64-2.09,.57-1.52,1-3.1,1.6-4.62,.55-1.39,.33-2.64-.65-3.66-.96-1-2.14-1.79-3.13-2.76-1.68-1.65-3.5-1.5-5.53-.8-.75,.26-1.71,.08-2.53-.11-.68-.16-1.27-.68-1.94-.91-.46-.16-1.04-.26-1.48-.12-2.12,.7-2.94,1.91-2.83,4.14,.04,.98,.31,1.96,.34,2.94,.06,1.83,.19,3.69-.04,5.49-.24,1.88-.33,2.15,1.42,2.95,.74,.34,1.61,.58,2.41,.54,1.86-.09,3.71-.38,5.56-.59Z"/><path class="cls-1" d="M138.67,73.9c2.32,0,4.63-.04,6.95,.01,2.16,.05,4.45,2.38,4.29,4.4-.05,.64-.43,1.35-.87,1.83-.67,.73-1.5,1.3-2.3,1.9-2.09,1.58-1.61,3.01-.43,4.4,2.09,2.44,3.14,5.33,4.31,8.2,.32,.8,.62,1.61,1.63,1.69,1.01,.08,1.69-.5,2.07-1.35,.91-2.03,1.65-4.13,2.66-6.11,.76-1.49,1.8-2.84,2.74-4.24,.2-.29,.52-.5,.74-.78,1.09-1.38,.99-2.79-1.12-2.79-.35,0-.71-.09-1.06-.18-1.07-.27-2.16-.6-2.37-1.87-.23-1.41,.08-2.67,1.32-3.61,1.65-1.25,3.41-1.01,5.25-.62,1.19,.25,2.41,.46,3.62,.49,1.91,.06,3.83-.07,5.75-.06,1.32,0,1.93,.6,1.92,1.92,0,.86-.16,1.74-.42,2.56-.3,.99-1.06,1.45-2.13,1.35-1.92-.19-3.04,.53-3.78,2.47-.86,2.25-2.32,4.26-3.39,6.44-.79,1.6-1.27,3.37-2.11,4.95-.98,1.83-2.26,3.5-3.29,5.3-1.71,2.96-4,5.69-3.38,9.55,.27,1.71,.05,3.5,.07,5.25,0,.68,.06,1.35,.09,2.03,.04,.96,.56,1.45,1.5,1.53,1.47,.13,2.96,.15,4.4,.44,1.63,.32,3.24,.81,4.8,1.38,1.06,.39,1.88,2.13,1.74,3.2-.21,1.68-.84,2.42-2.52,2.72-1.32,.24-2.67,.39-4.01,.46-3.89,.22-7.81,.17-11.67,.63-2.56,.3-5.09,1.01-7.69,.72-1.89-.21-3.77-.61-5.63-1.01-.38-.08-.72-.48-1-.81-1.56-1.84-.63-5.09,1.45-6.23,2.18-1.19,4.44-1.07,6.74-1.12,1.23-.03,2.46-.13,3.67-.36,.96-.18,1.49-.94,1.5-1.92,.03-2.92,.35-5.89-.11-8.73-.33-2.02-1.72-3.87-2.67-5.78-.26-.53-.62-1.01-.92-1.53-.76-1.29-1.59-2.54-2.26-3.88-1.18-2.37-2.57-4.66-3.04-7.34-.11-.62-.5-1.24-.9-1.75-.66-.83-1.36-1.66-2.17-2.33-.86-.72-1.79-1.55-2.83-1.81-1.86-.47-3.43-1.35-4.76-2.61-1.33-1.25-1.53-3.17-1.15-4.66,.4-1.58,2.01-2.51,3.85-2.52,2.32,0,4.63,0,6.95,0v.18Z"/></svg>